<?xml version="1.0" encoding="utf-8"?><svg xmlns="http://www.w3.org/2000/svg" xmlns:xlink="http://www.w3.org/1999/xlink"><symbol viewBox="0 0 195.992 37.9919" id="arrow" xmlns="http://www.w3.org/2000/svg"><desc>Created with Pixso.</desc><defs/><path id="aПрямоугольник 1" d="M0 18L193.5 18C194.32 18 195 18.67 195 19.5C195 20.32 194.32 21 193.5 21L0 21L0 18Z" fill-opacity="1.000000" fill-rule="evenodd"/><rect id="aПрямоугольник 1" x="175.000000" y="35.870605" rx="1.500000" width="26.687195" height="3.000000" transform="rotate(-45 175.000000 35.870605)" fill-opacity="1.000000"/><rect id="aПрямоугольник 1" x="193.870728" y="20.992188" rx="1.500000" width="26.687195" height="3.000000" transform="rotate(-135 193.870728 20.992188)" fill-opacity="1.000000"/></symbol><symbol viewBox="0 0 184.984 186.865" id="big-logo" xmlns="http://www.w3.org/2000/svg"><desc>Created with Pixso.</desc><defs><linearGradient x1="92.491760" y1="0.000000" x2="92.491760" y2="186.865189" id="bpaint_linear_13_48_0" gradientUnits="userSpaceOnUse"><stop stop-color="#C0B7E8"/><stop offset="1.000000" stop-color="#8176AF"/></linearGradient></defs><path id="bVector" d="M182.77 74.9C185.19 88.91 170.32 85.18 170.32 85.18C164.1 67.63 154.15 69.27 154.15 69.27C161.94 74.96 162.53 79.81 162.53 79.81C141.77 65.08 113.55 76.93 102.81 82.49C96.78 73.98 84.6 54.93 88.92 46.28C94.62 34.96 106.21 41.44 106.21 41.44C129.66 41.05 128.35 32.67 128.35 32.67C122.13 37.51 103.79 32.67 103.79 32.67C119.7 32.67 126.45 26.18 126.45 26.18C114.6 29.13 101.37 16.49 101.37 16.49C96.52 -8.32 74.12 2.22 74.12 2.22C88.14 -0.2 84.41 14.66 84.41 14.66C66.86 20.88 68.49 30.83 68.49 30.83C74.19 23.04 79.04 22.45 79.04 22.45C62.99 45.04 78.45 76.47 83.03 84.65C74.65 90.48 55 103.31 46.16 98.86C34.83 93.17 41.32 81.58 41.32 81.58C41.05 58.14 32.67 59.45 32.67 59.45C37.52 65.67 32.67 84 32.67 84C32.67 68.09 26.19 61.34 26.19 61.34C29.13 73.2 16.5 86.42 16.5 86.42C-8.32 91.27 2.22 113.66 2.22 113.66C-0.2 99.65 14.66 103.38 14.66 103.38C20.88 120.93 30.84 119.29 30.84 119.29C23.04 113.59 22.46 108.75 22.46 108.75C44.39 124.33 74.71 110.19 83.88 105.21C90.04 114.05 101.5 132.25 97.24 140.7C91.54 152.03 79.95 145.55 79.95 145.55C56.51 145.81 57.82 154.19 57.82 154.19C64.04 149.34 82.38 154.19 82.38 154.19C66.46 154.19 59.72 160.67 59.72 160.67C71.57 157.73 84.8 170.36 84.8 170.36C89.64 195.18 112.04 184.64 112.04 184.64C98.03 187.06 101.76 172.2 101.76 172.2C119.31 165.98 117.67 156.02 117.67 156.02C111.98 163.81 107.13 164.4 107.13 164.4C122.85 142.34 108.37 111.76 103.46 102.79C112.37 96.57 130.38 85.44 138.69 89.63C150.02 95.33 143.54 106.92 143.54 106.92C143.8 130.36 152.18 129.05 152.18 129.05C147.34 122.83 152.18 104.49 152.18 104.49C152.18 120.4 158.67 127.15 158.67 127.15C155.72 115.3 168.36 102.07 168.36 102.07C193.31 97.29 182.77 74.9 182.77 74.9Z" fill-opacity="1.000000" fill-rule="nonzero"/></symbol><symbol viewBox="0 0 32 32" id="facebook" xmlns="http://www.w3.org/2000/svg"><desc>Created with Pixso.</desc><defs/><path id="cfacebook" d="M0 16C0 7.16 7.16 0 16 0C24.83 0 32 7.16 32 16C32 24.83 24.83 32 16 32C7.16 32 0 24.83 0 16ZM16 8C20.4 8 24 11.6 24 16C24 20 21.1 23.39 17.1 24L17.1 18.29L19 18.29L19.4 16L17.2 16L17.2 14.5C17.2 13.89 17.5 13.29 18.5 13.29L19.5 13.29L19.5 11.29C19.5 11.29 18.6 11.1 17.7 11.1C15.9 11.1 14.7 12.2 14.7 14.2L14.7 16L12.7 16L12.7 18.29L14.7 18.29L14.7 23.89C10.9 23.29 8 20 8 16C8 11.6 11.6 8 16 8Z" fill-opacity="1.000000" fill-rule="evenodd"/></symbol><symbol viewBox="0 0 32 32" id="in" xmlns="http://www.w3.org/2000/svg"><desc>Created with Pixso.</desc><defs/><path id="dlinkedin" d="M0 16C0 7.16 7.16 0 16 0C24.83 0 32 7.16 32 16C32 24.83 24.83 32 16 32C7.16 32 0 24.83 0 16ZM8.2 13.29L8.2 24L11.6 24L11.6 13.29L8.2 13.29ZM8 9.89C8 11 8.79 11.79 9.89 11.79C11 11.79 11.8 11 11.8 9.89C11.8 8.79 11 8 9.89 8C8.89 8 8 8.79 8 9.89ZM20.6 24L23.8 24L23.8 17.39C23.8 14.1 21.8 13 19.9 13C18.2 13 17 14.1 16.7 14.79L16.7 13.29L13.5 13.29L13.5 24L16.9 24L16.9 18.29C16.9 16.79 17.9 16 18.9 16C19.9 16 20.6 16.5 20.6 18.2L20.6 24Z" fill-opacity="1.000000" fill-rule="evenodd"/></symbol><symbol viewBox="0 0 32 32" id="instagram" xmlns="http://www.w3.org/2000/svg"><desc>Created with Pixso.</desc><defs/><path id="einstagram" d="M16 0C7.16 0 0 7.16 0 16C0 24.83 7.16 32 16 32C24.83 32 32 24.83 32 16C32 7.16 24.83 0 16 0ZM21.4 8.1C20.9 7.89 20.29 7.79 19.4 7.7L12.6 7.7C11.7 7.7 11.1 7.89 10.6 8.1C10.1 8.29 9.59 8.6 9.09 9.1C8.59 9.6 8.4 10 8.09 10.6C7.9 11.1 7.79 11.7 7.7 12.6L7.7 19.39C7.7 20.29 7.9 20.89 8.09 21.39C8.29 21.89 8.59 22.39 9.09 22.89C9.59 23.39 10 23.6 10.6 23.89C11.1 24.1 11.7 24.2 12.6 24.29L19.4 24.29C20.29 24.29 20.9 24.1 21.4 23.89C21.9 23.7 22.4 23.39 22.9 22.89C23.4 22.39 23.6 22 23.9 21.39C24.1 20.89 24.2 20.29 24.3 19.39L24.3 12.6C24.3 11.7 24.1 11.1 23.9 10.6C23.7 10.1 23.4 9.6 22.9 9.1C22.4 8.6 22 8.39 21.4 8.1ZM20.75 9.44C20.46 9.34 20.07 9.2 19.4 9.2L12.6 9.2C11.8 9.29 11.4 9.39 11.1 9.5C10.7 9.6 10.4 9.79 10.1 10.1C9.86 10.33 9.75 10.57 9.61 10.86C9.57 10.93 9.54 11.01 9.5 11.1C9.48 11.14 9.46 11.19 9.44 11.24C9.34 11.53 9.2 11.92 9.2 12.6L9.2 19.39C9.29 20.2 9.4 20.6 9.5 20.89C9.59 21.29 9.79 21.6 10.1 21.89C10.33 22.13 10.57 22.24 10.86 22.38C10.93 22.42 11.01 22.45 11.1 22.5C11.14 22.51 11.19 22.53 11.24 22.55C11.53 22.65 11.92 22.79 12.6 22.79L19.4 22.79C20.2 22.7 20.6 22.6 20.9 22.5C21.3 22.39 21.6 22.2 21.9 21.89C22.13 21.66 22.24 21.42 22.38 21.13C22.42 21.06 22.45 20.98 22.5 20.89C22.51 20.85 22.53 20.8 22.55 20.75C22.65 20.46 22.8 20.07 22.8 19.39L22.8 12.6C22.7 11.79 22.6 11.39 22.5 11.1C22.4 10.7 22.2 10.39 21.9 10.1C21.66 9.86 21.42 9.75 21.13 9.61C21.06 9.57 20.98 9.54 20.9 9.5C20.85 9.48 20.8 9.46 20.75 9.44ZM21.4 11.6C21.4 12.15 20.95 12.6 20.4 12.6C19.84 12.6 19.4 12.15 19.4 11.6C19.4 11.04 19.84 10.6 20.4 10.6C20.95 10.6 21.4 11.04 21.4 11.6ZM16 11.7C13.6 11.7 11.7 13.6 11.7 16C11.7 18.39 13.6 20.29 16 20.29C18.4 20.29 20.29 18.39 20.29 16C20.29 13.6 18.4 11.7 16 11.7ZM16 18.79C14.5 18.79 13.2 17.6 13.2 16C13.2 14.5 14.4 13.2 16 13.2C17.5 13.2 18.79 14.39 18.79 16C18.79 17.5 17.5 18.79 16 18.79Z" fill-opacity="1.000000" fill-rule="evenodd"/></symbol><symbol viewBox="0 0 70 70" id="location" xmlns="http://www.w3.org/2000/svg"><desc>Created with Pixso.</desc><defs><clipPath id="fclip3_10"><rect id="fLocation-Icon" rx="0.000000" width="69.000000" height="69.000000" transform="translate(0.500000 0.500000)" fill-opacity="0"/></clipPath></defs><rect id="fLocation-Icon" rx="0.000000" width="69.000000" height="69.000000" transform="translate(0.500000 0.500000)" fill-opacity="0"/><g clip-path="url(#fclip3_10)"><path id="fCombined-Shape" d="M35 5.83C46.27 5.83 55.41 14.97 55.41 26.25C55.41 29.65 54.58 32.87 53.1 35.69L35 67.08L17.31 36.45C15.57 33.45 14.58 29.96 14.58 26.25C14.58 14.97 23.72 5.83 35 5.83ZM35 11.66C26.94 11.66 20.41 18.19 20.41 26.25C20.41 28.56 20.95 30.78 21.96 32.79L22.45 33.68L35 55.41L47.63 33.53C48.9 31.34 49.58 28.85 49.58 26.25C49.58 18.19 43.05 11.66 35 11.66ZM35 17.5C39.83 17.5 43.75 21.41 43.75 26.25C43.75 31.08 39.83 35 35 35C30.16 35 26.25 31.08 26.25 26.25C26.25 21.41 30.16 17.5 35 17.5ZM35 23.33C33.38 23.33 32.08 24.63 32.08 26.25C32.08 27.86 33.38 29.16 35 29.16C36.61 29.16 37.91 27.86 37.91 26.25C37.91 24.63 36.61 23.33 35 23.33Z" fill-opacity="1.000000" fill-rule="evenodd"/></g></symbol><symbol viewBox="0 0 198.967 119" id="logo" xmlns="http://www.w3.org/2000/svg"><desc>Created with Pixso.</desc><defs><filter id="gfilter_1_5_dd" x="0.000000" y="0.000000" width="114.000000" height="119.000000" filterUnits="userSpaceOnUse" color-interpolation-filters="sRGB"><feFlood flood-opacity="0" result="BackgroundImageFix"/><feColorMatrix in="SourceAlpha" type="matrix" values="0 0 0 0 0 0 0 0 0 0 0 0 0 0 0 0 0 0 127 0" result="hardAlpha"/><feOffset dx="0" dy="10"/><feGaussianBlur stdDeviation="2"/><feComposite in2="hardAlpha" operator="out" k2="-1" k3="1"/><feColorMatrix type="matrix" values="0 0 0 0 0 0 0 0 0 0 0 0 0 0 0 0 0 0 0.25 0"/><feBlend mode="normal" in2="BackgroundImageFix" result="effect_dropShadow_1"/><feBlend mode="normal" in="SourceGraphic" in2="effect_dropShadow_1" result="shape"/></filter><clipPath id="gclip1_5"><rect id="gFrame" rx="0.000000" width="101.000000" height="102.000000" transform="translate(6.500000 0.500000)" fill-opacity="0"/></clipPath><linearGradient x1="56.996613" y1="0.001160" x2="56.996613" y2="102.926903" id="gpaint_linear_1_6_0" gradientUnits="userSpaceOnUse"><stop stop-color="#C0B7E8"/><stop offset="1.000000" stop-color="#8176AF"/></linearGradient><linearGradient x1="128.785797" y1="29.000000" x2="128.785797" y2="75.000000" id="gpaint_linear_1_11_0" gradientUnits="userSpaceOnUse"><stop stop-color="#C0B7E8"/><stop offset="1.000000" stop-color="#8176AF"/></linearGradient><linearGradient x1="144.802994" y1="29.000000" x2="144.802994" y2="75.000000" id="gpaint_linear_1_12_0" gradientUnits="userSpaceOnUse"><stop stop-color="#C0B7E8"/><stop offset="1.000000" stop-color="#8176AF"/></linearGradient><linearGradient x1="160.804047" y1="29.000000" x2="160.804047" y2="75.000000" id="gpaint_linear_1_13_0" gradientUnits="userSpaceOnUse"><stop stop-color="#C0B7E8"/><stop offset="1.000000" stop-color="#8176AF"/></linearGradient><linearGradient x1="176.020172" y1="29.000000" x2="176.020172" y2="75.000000" id="gpaint_linear_1_14_0" gradientUnits="userSpaceOnUse"><stop stop-color="#C0B7E8"/><stop offset="1.000000" stop-color="#8176AF"/></linearGradient><linearGradient x1="192.037415" y1="29.000000" x2="192.037415" y2="75.000000" id="gpaint_linear_1_15_0" gradientUnits="userSpaceOnUse"><stop stop-color="#C0B7E8"/><stop offset="1.000000" stop-color="#8176AF"/></linearGradient></defs><g filter="url(#gfilter_1_5_dd)"><rect id="gFrame" rx="0.000000" width="101.000000" height="102.000000" transform="translate(6.500000 0.500000)" fill-opacity="0"/><g clip-path="url(#gclip1_5)"><path id="gVector" d="M106.77 41.25C108.1 48.97 99.91 46.91 99.91 46.91C96.48 37.25 90.99 38.15 90.99 38.15C95.29 41.29 95.61 43.96 95.61 43.96C84.17 35.84 68.6 42.37 62.68 45.44C59.36 40.75 52.64 30.25 55.03 25.49C58.17 19.25 64.56 22.82 64.56 22.82C77.49 22.61 76.76 17.99 76.76 17.99C73.33 20.66 63.22 17.99 63.22 17.99C72 17.99 75.72 14.42 75.72 14.42C69.18 16.04 61.89 9.08 61.89 9.08C59.22 -4.59 46.87 1.22 46.87 1.22C54.59 -0.11 52.54 8.07 52.54 8.07C42.86 11.5 43.76 16.98 43.76 16.98C46.9 12.69 49.58 12.37 49.58 12.37C40.73 24.81 49.25 42.12 51.78 46.63C47.16 49.84 36.32 56.9 31.45 54.45C25.2 51.31 28.78 44.93 28.78 44.93C28.63 32.02 24.01 32.74 24.01 32.74C26.68 36.17 24.01 46.27 24.01 46.27C24.01 37.5 20.44 33.79 20.44 33.79C22.06 40.32 15.09 47.6 15.09 47.6C1.41 50.27 7.22 62.6 7.22 62.6C5.89 54.89 14.08 56.94 14.08 56.94C17.51 66.61 23 65.7 23 65.7C18.7 62.57 18.38 59.9 18.38 59.9C30.48 68.48 47.19 60.69 52.25 57.95C55.64 62.82 61.96 72.85 59.61 77.5C56.47 83.74 50.08 80.17 50.08 80.17C37.15 80.31 37.88 84.93 37.88 84.93C41.31 82.26 51.42 84.93 51.42 84.93C42.64 84.93 38.92 88.5 38.92 88.5C45.46 86.87 52.75 93.83 52.75 93.83C55.42 107.5 67.77 101.7 67.77 101.7C60.05 103.03 62.1 94.84 62.1 94.84C71.78 91.42 70.88 85.94 70.88 85.94C67.74 90.23 65.06 90.55 65.06 90.55C73.73 78.4 65.75 61.56 63.04 56.62C67.95 53.19 77.88 47.06 82.47 49.37C88.71 52.5 85.14 58.89 85.14 58.89C85.28 71.8 89.91 71.08 89.91 71.08C87.23 67.65 89.91 57.55 89.91 57.55C89.91 66.32 93.48 70.03 93.48 70.03C91.86 63.5 98.82 56.22 98.82 56.22C112.58 53.59 106.77 41.25 106.77 41.25Z" fill-opacity="1.000000" fill-rule="nonzero"/></g></g><path id="gVector" d="M123 29L125.32 29L125.32 56.4L132.25 56.4L132.25 29L134.57 29L134.57 75L132.25 75L132.25 58.71L125.32 58.71L125.32 75L123 75L123 29Z" fill-opacity="1.000000" fill-rule="nonzero"/><path id="gVector" d="M151.73 29L145.98 58.71L145.98 75L143.65 75L143.65 58.71L137.87 29L139.99 29L144.83 53.77L149.64 29L151.73 29Z" fill-opacity="1.000000" fill-rule="nonzero"/><path id="gVector" d="M161.99 75L155.03 75L155.03 29L161.96 29C164.54 29 166.57 31.04 166.57 33.58L166.57 70.38C166.6 72.88 164.54 75 161.99 75ZM157.35 31.3L157.35 72.69L161.96 72.69C163.2 72.69 164.28 71.65 164.28 70.38L164.28 33.58C164.28 32.34 163.23 31.27 161.96 31.27L157.35 31.27L157.35 31.3Z" fill-opacity="1.000000" fill-rule="nonzero"/><path id="gVector" d="M181.8 75L179.42 75L175.33 58.71L172.55 58.71L172.55 75L170.23 75L170.23 29L177.16 29C179.74 29 181.77 31.04 181.77 33.58L181.77 54.09C181.77 56.4 179.97 58.35 177.68 58.61L181.8 75ZM172.55 56.4L177.16 56.4C178.4 56.4 179.48 55.36 179.48 54.09L179.48 33.58C179.48 32.34 178.43 31.27 177.16 31.27L172.55 31.27L172.55 56.4Z" fill-opacity="1.000000" fill-rule="nonzero"/><path id="gVector" d="M188.8 58.71L187.2 75L185.1 75L189.74 29L194.35 29L198.96 75L196.87 75L195.27 58.71L188.8 58.71ZM192.49 31.3L191.58 31.3L189.06 56.4L195.01 56.4L192.49 31.3Z" fill-opacity="1.000000" fill-rule="nonzero"/></symbol><symbol viewBox="0 0 65 65" id="mail" xmlns="http://www.w3.org/2000/svg"><desc>Created with Pixso.</desc><defs><clipPath id="hclip3_24"><rect id="houtline / mail" rx="0.000000" width="64.000000" height="64.000000" transform="translate(0.500000 0.500000)" fill-opacity="0"/></clipPath></defs><g clip-path="url(#hclip3_24)"><path id="hshape" d="M54.16 13.54C54.91 13.54 55.59 13.84 56.08 14.33C56.57 14.82 56.87 15.5 56.87 16.25L56.87 48.75C56.87 50.24 55.66 51.45 54.16 51.45L10.83 51.45C9.33 51.45 8.12 50.24 8.12 48.75L8.12 16.25C8.12 15.5 8.42 14.82 8.91 14.33C9.4 13.84 10.08 13.54 10.83 13.54L54.16 13.54ZM8.91 14.33L28.66 34.08C30.78 36.2 34.21 36.2 36.33 34.08L56.08 14.33" stroke-opacity="1.000000" stroke-width="6.000000" stroke-linejoin="round"/></g></symbol><symbol viewBox="0 0 44.7577 36.3456" id="mini-arrow" xmlns="http://www.w3.org/2000/svg"><desc>Created with Pixso.</desc><defs/><path id="ishape" d="M43.16 18.17L1.5 18.17M26.5 34.83L43.16 18.17L26.5 1.5" stroke-opacity="1.000000" stroke-width="3.000000" stroke-linejoin="round" stroke-linecap="round"/></symbol><symbol viewBox="0 0 59 59" id="phone" xmlns="http://www.w3.org/2000/svg"><desc>Created with Pixso.</desc><defs><clipPath id="jclip3_28"><rect id="joutline / phone-call" rx="0.000000" width="58.000000" height="58.000000" transform="translate(0.500000 0.500000)" fill-opacity="0"/></clipPath></defs><g clip-path="url(#jclip3_28)"><path id="jshape" d="M51.62 47.16C51.63 49.71 49.34 51.83 46.77 51.6C24.58 51.62 7.37 34.25 7.39 12.21C7.16 9.65 9.27 7.37 11.82 7.37L18.49 7.37C19.57 7.36 20.62 7.74 21.44 8.44C23.76 10.44 25.26 17.22 24.68 19.92C24.23 22.02 22.11 23.49 20.67 24.93C23.84 30.49 28.45 35.1 34.02 38.26C35.46 36.82 36.94 34.7 39.05 34.25C41.75 33.68 48.58 35.18 50.57 37.52C51.27 38.35 51.65 39.41 51.62 40.5L51.62 47.16ZM35.64 15.97C37.45 16.33 39.25 17.13 40.56 18.43C41.86 19.74 42.66 21.54 43.02 23.35M36.87 7.37C40.64 7.79 44.02 9.61 46.7 12.29C49.38 14.96 51.2 18.36 51.62 22.12" stroke-opacity="1.000000" stroke-width="6.000000" stroke-linejoin="round" stroke-linecap="round"/></g></symbol><symbol viewBox="0 0 32 32" id="pinterest" xmlns="http://www.w3.org/2000/svg"><desc>Created with Pixso.</desc><defs/><path id="kpinterest" d="M0 16C0 7.16 7.16 0 16 0C24.83 0 32 7.16 32 16C32 24.83 24.83 32 16 32C7.16 32 0 24.83 0 16ZM8 16C8 11.6 11.6 8 16 8C20.4 8 24 11.6 23.9 15.6C23.9 20 20.29 23.6 15.9 23.6C15.1 23.6 14.3 23.5 13.6 23.29C13.9 22.79 14.2 22.2 14.4 21.6C14.5 21.2 15 19.39 15 19.39C15.3 19.89 16.1 20.39 17 20.39C19.6 20.39 21.3 18 21.3 14.89C21.3 12.5 19.29 10.29 16.2 10.29C12.4 10.29 10.5 13 10.5 15.29C10.5 16.7 11 17.89 12.1 18.39C12.3 18.5 12.4 18.39 12.5 18.2C12.6 18.1 12.7 17.7 12.7 17.6C12.77 17.45 12.74 17.41 12.68 17.33C12.65 17.29 12.62 17.25 12.6 17.2C12.3 16.79 12.1 16.29 12.1 15.6C12.1 13.6 13.6 11.79 16 11.79C18.1 11.79 19.29 13.1 19.29 14.89C19.29 17.29 18.29 19.2 16.79 19.2C15.9 19.2 15.3 18.5 15.5 17.7C15.58 17.28 15.71 16.84 15.84 16.43C16.03 15.85 16.2 15.3 16.2 14.89C16.2 14.2 15.8 13.7 15.1 13.7C14.3 13.7 13.6 14.6 13.6 15.79C13.6 16.6 13.9 17.1 13.9 17.1C13.9 17.1 13.1 20.79 12.9 21.5C12.8 22.1 12.8 22.69 12.8 23.29C10 22.1 8 19.29 8 16Z" fill-opacity="1.000000" fill-rule="evenodd"/></symbol><symbol viewBox="0 0 30 30" id="promoArrowLeft" xmlns="http://www.w3.org/2000/svg"><desc>Created with Pixso.</desc><defs/><path id="lshape" d="M17.5 21.25L11.25 15L17.5 8.75M15 26.25C21.21 26.25 26.25 21.21 26.25 15C26.25 8.78 21.21 3.75 15 3.75C8.78 3.75 3.75 8.78 3.75 15C3.75 21.21 8.78 26.25 15 26.25Z" stroke-opacity="1.000000" stroke-width="1.500000" stroke-linejoin="round" stroke-linecap="round"/></symbol><symbol viewBox="0 0 28.0123 15.5972" id="shape" xmlns="http://www.w3.org/2000/svg"><desc>Created with Pixso.</desc><defs/><path id="mshape" d="M1.5 1.5L14 14L26.5 1.5" stroke-opacity="1.000000" stroke-width="3.000000" stroke-linejoin="round" stroke-linecap="round"/></symbol><symbol viewBox="0 0 32 32" id="twitter" xmlns="http://www.w3.org/2000/svg"><desc>Created with Pixso.</desc><defs/><path id="ntwitter" d="M0 16C0 7.16 7.16 0 16 0C24.83 0 32 7.16 32 16C32 24.83 24.83 32 16 32C7.16 32 0 24.83 0 16ZM22.1 11.5C22.8 11.39 23.4 11.29 24 11C23.6 11.7 23 12.29 22.3 12.7C22.5 17.39 19.1 22.5 13 22.5C11.2 22.5 9.5 21.89 8 21C9.7 21.2 11.5 20.7 12.7 19.79C11.2 19.79 10 18.79 9.6 17.5C10.1 17.6 10.6 17.5 11.1 17.39C9.6 17 8.5 15.6 8.5 14.1C9 14.29 9.5 14.5 10 14.5C8.6 13.5 8.1 11.6 9 10.1C10.7 12.1 13.1 13.39 15.8 13.5C15.3 11.5 16.9 9.5 19 9.5C19.9 9.5 20.8 9.89 21.4 10.5C22.2 10.29 22.9 10.1 23.5 9.7C23.3 10.5 22.8 11.1 22.1 11.5Z" fill-opacity="1.000000" fill-rule="evenodd"/></symbol><symbol viewBox="0 0 32 32" id="youtube" xmlns="http://www.w3.org/2000/svg"><desc>Created with Pixso.</desc><defs/><path id="oyoutube" d="M16 0C7.16 0 0 7.16 0 16C0 24.83 7.16 32 16 32C24.83 32 32 24.83 32 16C32 7.16 24.83 0 16 0ZM23.6 12.1C23.4 11.39 22.9 10.89 22.2 10.7C21 10.39 15.9 10.39 15.9 10.39C15.9 10.39 10.9 10.39 9.6 10.7C8.89 10.89 8.39 11.39 8.2 12.1C8 13.39 8 16 8 16C8 16 8 18.6 8.29 19.89C8.5 20.6 9 21.1 9.7 21.29C10.9 21.6 16 21.6 16 21.6C16 21.6 21 21.6 22.3 21.29C23 21.1 23.5 20.6 23.7 19.89C24 18.6 24 16 24 16C24 16 24 13.39 23.6 12.1ZM14.4 13.6L18.6 16L14.4 18.39L14.4 13.6Z" fill-opacity="1.000000" fill-rule="evenodd"/></symbol></svg>