<?xml version="1.0" encoding="utf-8"?><svg viewBox="0 0 198.967 186.865" xmlns="http://www.w3.org/2000/svg" xmlns:xlink="http://www.w3.org/1999/xlink"><style>:root>svg{display:none}:root>svg:target{display:block}</style><svg fill="none" viewBox="0 0 195.992 37.992" id="arrow" xmlns="http://www.w3.org/2000/svg"><path d="M0 18h193.5c.82 0 1.5.67 1.5 1.5 0 .82-.68 1.5-1.5 1.5H0v-3Z" fill="#C0B7E8" fill-rule="evenodd"/><rect x="175" y="35.871" rx="1.5" width="26.687" height="3" transform="rotate(-45 175 35.87)" fill="#C0B7E8"/><rect x="193.871" y="20.992" rx="1.5" width="26.687" height="3" transform="rotate(-135 193.87 20.992)" fill="#C0B7E8"/></svg><svg fill="none" viewBox="0 0 184.984 186.865" id="big-logo" xmlns="http://www.w3.org/2000/svg"><defs><linearGradient x1="92.492" y1="0" x2="92.492" y2="186.865" id="ba" gradientUnits="userSpaceOnUse"><stop stop-color="#C0B7E8"/><stop offset="1" stop-color="#8176AF"/></linearGradient></defs><path d="M182.77 74.9c2.42 14.01-12.45 10.28-12.45 10.28-6.22-17.55-16.17-15.91-16.17-15.91 7.79 5.69 8.38 10.54 8.38 10.54-20.76-14.73-48.98-2.88-59.72 2.68-6.03-8.51-18.21-27.56-13.89-36.21 5.7-11.32 17.29-4.84 17.29-4.84 23.45-.39 22.14-8.77 22.14-8.77-6.22 4.84-24.56 0-24.56 0 15.91 0 22.66-6.49 22.66-6.49-11.85 2.95-25.08-9.69-25.08-9.69C96.52-8.32 74.12 2.22 74.12 2.22 88.14-.2 84.41 14.66 84.41 14.66c-17.55 6.22-15.92 16.17-15.92 16.17 5.7-7.79 10.55-8.38 10.55-8.38-16.05 22.59-.59 54.02 3.99 62.2-8.38 5.83-28.03 18.66-36.87 14.21-11.33-5.69-4.84-17.28-4.84-17.28-.27-23.44-8.65-22.13-8.65-22.13 4.85 6.22 0 24.55 0 24.55 0-15.91-6.48-22.66-6.48-22.66 2.94 11.86-9.69 25.08-9.69 25.08-24.82 4.85-14.28 27.24-14.28 27.24-2.42-14.01 12.44-10.28 12.44-10.28 6.22 17.55 16.18 15.91 16.18 15.91-7.8-5.7-8.38-10.54-8.38-10.54 21.93 15.58 52.25 1.44 61.42-3.54 6.16 8.84 17.62 27.04 13.36 35.49-5.7 11.33-17.29 4.85-17.29 4.85-23.44.26-22.13 8.64-22.13 8.64 6.22-4.85 24.56 0 24.56 0-15.92 0-22.66 6.48-22.66 6.48 11.85-2.94 25.08 9.69 25.08 9.69 4.84 24.82 27.24 14.28 27.24 14.28-14.01 2.42-10.28-12.44-10.28-12.44 17.55-6.22 15.91-16.18 15.91-16.18-5.69 7.79-10.54 8.38-10.54 8.38 15.72-22.06 1.24-52.64-3.67-61.61 8.91-6.22 26.92-17.35 35.23-13.16 11.33 5.7 4.85 17.29 4.85 17.29.26 23.44 8.64 22.13 8.64 22.13-4.84-6.22 0-24.56 0-24.56 0 15.91 6.49 22.66 6.49 22.66-2.95-11.85 9.69-25.08 9.69-25.08 24.95-4.78 14.41-27.17 14.41-27.17Z" fill="url(#ba)"/></svg><svg fill="none" viewBox="0 0 32 32" id="facebook" xmlns="http://www.w3.org/2000/svg"><path d="M0 16C0 7.16 7.16 0 16 0c8.83 0 16 7.16 16 16 0 8.83-7.17 16-16 16-8.84 0-16-7.17-16-16Zm16-8c4.4 0 8 3.6 8 8 0 4-2.9 7.39-6.9 8v-5.71H19l.4-2.29h-2.2v-1.5c0-.61.3-1.21 1.3-1.21h1v-2s-.9-.19-1.8-.19c-1.8 0-3 1.1-3 3.1V16h-2v2.29h2v5.6C10.9 23.29 8 20 8 16c0-4.4 3.6-8 8-8Z" fill="#C0B7E8" fill-rule="evenodd"/></svg><svg fill="none" viewBox="0 0 32 32" id="in" xmlns="http://www.w3.org/2000/svg"><path d="M0 16C0 7.16 7.16 0 16 0c8.83 0 16 7.16 16 16 0 8.83-7.17 16-16 16-8.84 0-16-7.17-16-16Zm8.2-2.71V24h3.4V13.29H8.2ZM8 9.89c0 1.11.79 1.9 1.89 1.9 1.11 0 1.91-.79 1.91-1.9C11.8 8.79 11 8 9.89 8 8.89 8 8 8.79 8 9.89ZM20.6 24h3.2v-6.61c0-3.29-2-4.39-3.9-4.39-1.7 0-2.9 1.1-3.2 1.79v-1.5h-3.2V24h3.4v-5.71c0-1.5 1-2.29 2-2.29s1.7.5 1.7 2.2V24Z" fill="#C0B7E8" fill-rule="evenodd"/></svg><svg fill="none" viewBox="0 0 32 32" id="instagram" xmlns="http://www.w3.org/2000/svg"><path d="M16 0C7.16 0 0 7.16 0 16c0 8.83 7.16 16 16 16 8.83 0 16-7.17 16-16 0-8.84-7.17-16-16-16Zm5.4 8.1c-.5-.21-1.11-.31-2-.4h-6.8c-.9 0-1.5.19-2 .4-.5.19-1.01.5-1.51 1s-.69.9-1 1.5c-.19.5-.3 1.1-.39 2v6.79c0 .9.2 1.5.39 2 .2.5.5 1 1 1.5s.91.71 1.51 1c.5.21 1.1.31 2 .4h6.8c.89 0 1.5-.19 2-.4.5-.19 1-.5 1.5-1s.7-.89 1-1.5c.2-.5.3-1.1.4-2V12.6c0-.9-.2-1.5-.4-2s-.5-1-1-1.5-.9-.71-1.5-1Zm-.65 1.34c-.29-.1-.68-.24-1.35-.24h-6.8c-.8.09-1.2.19-1.5.3-.4.1-.7.29-1 .6-.24.23-.35.47-.49.76-.04.07-.07.15-.11.24-.02.04-.04.09-.06.14-.1.29-.24.68-.24 1.36v6.79c.09.81.2 1.21.3 1.5.09.4.29.71.6 1 .23.24.47.35.76.49.07.04.15.07.24.12.04.01.09.03.14.05.29.1.68.24 1.36.24h6.8c.8-.09 1.2-.19 1.5-.29.4-.11.7-.3 1-.61.23-.23.34-.47.48-.76.04-.07.07-.15.12-.24.01-.04.03-.09.05-.14.1-.29.25-.68.25-1.36V12.6c-.1-.81-.2-1.21-.3-1.5-.1-.4-.3-.71-.6-1-.24-.24-.48-.35-.77-.49-.07-.04-.15-.07-.23-.11l-.15-.06Zm.65 2.16c0 .55-.45 1-1 1-.56 0-1-.45-1-1 0-.56.44-1 1-1 .55 0 1 .44 1 1Zm-5.4.1c-2.4 0-4.3 1.9-4.3 4.3 0 2.39 1.9 4.29 4.3 4.29s4.29-1.9 4.29-4.29c0-2.4-1.89-4.3-4.29-4.3Zm0 7.09c-1.5 0-2.8-1.19-2.8-2.79 0-1.5 1.2-2.8 2.8-2.8 1.5 0 2.79 1.19 2.79 2.8 0 1.5-1.29 2.79-2.79 2.79Z" fill="#C0B7E8" fill-rule="evenodd"/></svg><svg fill="none" viewBox="0 0 70 70" id="location" xmlns="http://www.w3.org/2000/svg"><defs><clipPath id="fa"><rect rx="0" width="69" height="69" transform="translate(.5 .5)" fill="#fff" fill-opacity="0"/></clipPath></defs><rect rx="0" width="69" height="69" transform="translate(.5 .5)" fill="none"/><g clip-path="url(#fa)"><path d="M35 5.83c11.27 0 20.41 9.14 20.41 20.42 0 3.4-.83 6.62-2.31 9.44L35 67.08 17.31 36.45c-1.74-3-2.73-6.49-2.73-10.2 0-11.28 9.14-20.42 20.42-20.42Zm0 5.83c-8.06 0-14.59 6.53-14.59 14.59 0 2.31.54 4.53 1.55 6.54l.49.89L35 55.41l12.63-21.88c1.27-2.19 1.95-4.68 1.95-7.28 0-8.06-6.53-14.59-14.58-14.59Zm0 5.84c4.83 0 8.75 3.91 8.75 8.75 0 4.83-3.92 8.75-8.75 8.75-4.84 0-8.75-3.92-8.75-8.75A8.74 8.74 0 0 1 35 17.5Zm0 5.83a2.91 2.91 0 0 0-2.92 2.92c0 1.61 1.3 2.91 2.92 2.91 1.61 0 2.91-1.3 2.91-2.91 0-1.62-1.3-2.92-2.91-2.92Z" fill="#C0B7E8" fill-rule="evenodd"/></g></svg><svg fill="none" viewBox="0 0 198.967 119" id="logo" xmlns="http://www.w3.org/2000/svg"><defs><linearGradient x1="56.997" y1=".001" x2="56.997" y2="102.927" id="gc" gradientUnits="userSpaceOnUse"><stop stop-color="#C0B7E8"/><stop offset="1" stop-color="#8176AF"/></linearGradient><linearGradient x1="128.786" y1="29" x2="128.786" y2="75" id="gd" gradientUnits="userSpaceOnUse"><stop stop-color="#C0B7E8"/><stop offset="1" stop-color="#8176AF"/></linearGradient><linearGradient x1="144.803" y1="29" x2="144.803" y2="75" id="ge" gradientUnits="userSpaceOnUse"><stop stop-color="#C0B7E8"/><stop offset="1" stop-color="#8176AF"/></linearGradient><linearGradient x1="160.804" y1="29" x2="160.804" y2="75" id="gf" gradientUnits="userSpaceOnUse"><stop stop-color="#C0B7E8"/><stop offset="1" stop-color="#8176AF"/></linearGradient><linearGradient x1="176.02" y1="29" x2="176.02" y2="75" id="gg" gradientUnits="userSpaceOnUse"><stop stop-color="#C0B7E8"/><stop offset="1" stop-color="#8176AF"/></linearGradient><linearGradient x1="192.037" y1="29" x2="192.037" y2="75" id="gh" gradientUnits="userSpaceOnUse"><stop stop-color="#C0B7E8"/><stop offset="1" stop-color="#8176AF"/></linearGradient><clipPath id="gb"><rect rx="0" width="101" height="102" transform="translate(6.5 .5)" fill="#fff" fill-opacity="0"/></clipPath><filter id="ga" x="0" y="0" width="114" height="119" filterUnits="userSpaceOnUse" color-interpolation-filters="sRGB"><feFlood flood-opacity="0" result="BackgroundImageFix"/><feColorMatrix in="SourceAlpha" values="0 0 0 0 0 0 0 0 0 0 0 0 0 0 0 0 0 0 127 0" result="hardAlpha"/><feOffset dy="10"/><feGaussianBlur stdDeviation="2"/><feComposite in2="hardAlpha" operator="out" k2="-1" k3="1"/><feColorMatrix values="0 0 0 0 0 0 0 0 0 0 0 0 0 0 0 0 0 0 0.25 0"/><feBlend in2="BackgroundImageFix" result="effect_dropShadow_1"/><feBlend in="SourceGraphic" in2="effect_dropShadow_1" result="shape"/></filter></defs><g filter="url(#ga)"><rect rx="0" width="101" height="102" transform="translate(6.5 .5)" fill="none"/><g clip-path="url(#gb)"><path d="M106.77 41.25c1.33 7.72-6.86 5.66-6.86 5.66-3.43-9.66-8.92-8.76-8.92-8.76 4.3 3.14 4.62 5.81 4.62 5.81-11.44-8.12-27.01-1.59-32.93 1.48-3.32-4.69-10.04-15.19-7.65-19.95 3.14-6.24 9.53-2.67 9.53-2.67 12.93-.21 12.2-4.83 12.2-4.83-3.43 2.67-13.54 0-13.54 0 8.78 0 12.5-3.57 12.5-3.57-6.54 1.62-13.83-5.34-13.83-5.34-2.67-13.67-15.02-7.86-15.02-7.86 7.72-1.33 5.67 6.85 5.67 6.85-9.68 3.43-8.78 8.91-8.78 8.91 3.14-4.29 5.82-4.61 5.82-4.61-8.85 12.44-.33 29.75 2.2 34.26-4.62 3.21-15.46 10.27-20.33 7.82-6.25-3.14-2.67-9.52-2.67-9.52-.15-12.91-4.77-12.19-4.77-12.19 2.67 3.43 0 13.53 0 13.53 0-8.77-3.57-12.48-3.57-12.48 1.62 6.53-5.35 13.81-5.35 13.81-13.68 2.67-7.87 15-7.87 15-1.33-7.71 6.86-5.66 6.86-5.66C17.51 66.61 23 65.7 23 65.7c-4.3-3.13-4.62-5.8-4.62-5.8 12.1 8.58 28.81.79 33.87-1.95 3.39 4.87 9.71 14.9 7.36 19.55-3.14 6.24-9.53 2.67-9.53 2.67-12.93.14-12.2 4.76-12.2 4.76 3.43-2.67 13.54 0 13.54 0-8.78 0-12.5 3.57-12.5 3.57 6.54-1.63 13.83 5.33 13.83 5.33 2.67 13.67 15.02 7.87 15.02 7.87-7.72 1.33-5.67-6.86-5.67-6.86 9.68-3.42 8.78-8.9 8.78-8.9-3.14 4.29-5.82 4.61-5.82 4.61 8.67-12.15.69-28.99-2.02-33.93 4.91-3.43 14.84-9.56 19.43-7.25 6.24 3.13 2.67 9.52 2.67 9.52.14 12.91 4.77 12.19 4.77 12.19-2.68-3.43 0-13.53 0-13.53 0 8.77 3.57 12.48 3.57 12.48-1.62-6.53 5.34-13.81 5.34-13.81 13.76-2.63 7.95-14.97 7.95-14.97Z" fill="url(#gc)"/></g></g><path d="M123 29h2.32v27.4h6.93V29h2.32v46h-2.32V58.71h-6.93V75H123V29Z" fill="url(#gd)"/><path d="m151.73 29-5.75 29.71V75h-2.33V58.71L137.87 29h2.12l4.84 24.77L149.64 29h2.09Z" fill="url(#ge)"/><path d="M161.99 75h-6.96V29h6.93c2.58 0 4.61 2.04 4.61 4.58v36.8c.03 2.5-2.03 4.62-4.58 4.62Zm-4.64-43.7v41.39h4.61c1.24 0 2.32-1.04 2.32-2.31v-36.8c0-1.24-1.05-2.31-2.32-2.31h-4.61v.03Z" fill="url(#gf)"/><path d="M181.8 75h-2.38l-4.09-16.29h-2.78V75h-2.32V29h6.93c2.58 0 4.61 2.04 4.61 4.58v20.51c0 2.31-1.8 4.26-4.09 4.52L181.8 75Zm-9.25-18.6h4.61c1.24 0 2.32-1.04 2.32-2.31V33.58c0-1.24-1.05-2.31-2.32-2.31h-4.61V56.4Z" fill="url(#gg)"/><path d="M188.8 58.71 187.2 75h-2.1l4.64-46h4.61l4.61 46h-2.09l-1.6-16.29h-6.47Zm3.69-27.41h-.91l-2.52 25.1h5.95l-2.52-25.1Z" fill="url(#gh)"/></svg><svg fill="none" viewBox="0 0 65 65" id="mail" xmlns="http://www.w3.org/2000/svg"><defs><clipPath id="ha"><rect rx="0" width="64" height="64" transform="translate(.5 .5)" fill="#fff" fill-opacity="0"/></clipPath></defs><g clip-path="url(#ha)"><path d="M54.16 13.54c.75 0 1.43.3 1.92.79.49.49.79 1.17.79 1.92v32.5c0 1.49-1.21 2.7-2.71 2.7H10.83c-1.5 0-2.71-1.21-2.71-2.7v-32.5c0-.75.3-1.43.79-1.92.49-.49 1.17-.79 1.92-.79h43.33Zm-45.25.79 19.75 19.75a5.42 5.42 0 0 0 7.67 0l19.75-19.75" stroke="#C0B7E8" stroke-width="6" stroke-linejoin="round"/></g></svg><svg fill="none" viewBox="0 0 44.758 36.346" id="mini-arrow" xmlns="http://www.w3.org/2000/svg"><path d="M43.16 18.17H1.5m25 16.66 16.66-16.66L26.5 1.5" stroke="#C0B7E8" stroke-width="3" stroke-linejoin="round" stroke-linecap="round"/></svg><svg fill="none" viewBox="0 0 59 59" id="phone" xmlns="http://www.w3.org/2000/svg"><defs><clipPath id="ja"><rect rx="0" width="58" height="58" transform="translate(.5 .5)" fill="#fff" fill-opacity="0"/></clipPath></defs><g clip-path="url(#ja)"><path d="M51.62 47.16c.01 2.55-2.28 4.67-4.85 4.44-22.19.02-39.4-17.35-39.38-39.39-.23-2.56 1.88-4.84 4.43-4.84h6.67c1.08-.01 2.13.37 2.95 1.07 2.32 2 3.82 8.78 3.24 11.48-.45 2.1-2.57 3.57-4.01 5.01a35.59 35.59 0 0 0 13.35 13.33c1.44-1.44 2.92-3.56 5.03-4.01 2.7-.57 9.53.93 11.52 3.27.7.83 1.08 1.89 1.05 2.98v6.66ZM35.64 15.97c1.81.36 3.61 1.16 4.92 2.46 1.3 1.31 2.1 3.11 2.46 4.92M36.87 7.37c3.77.42 7.15 2.24 9.83 4.92 2.68 2.67 4.5 6.07 4.92 9.83" stroke="#C0B7E8" stroke-width="6" stroke-linejoin="round" stroke-linecap="round"/></g></svg><svg fill="none" viewBox="0 0 32 32" id="pinterest" xmlns="http://www.w3.org/2000/svg"><path d="M0 16C0 7.16 7.16 0 16 0c8.83 0 16 7.16 16 16 0 8.83-7.17 16-16 16-8.84 0-16-7.17-16-16Zm8 0c0-4.4 3.6-8 8-8s8 3.6 7.9 7.6c0 4.4-3.61 8-8 8-.8 0-1.6-.1-2.3-.31.3-.5.6-1.09.8-1.69.1-.4.6-2.21.6-2.21.3.5 1.1 1 2 1 2.6 0 4.3-2.39 4.3-5.5 0-2.39-2.01-4.6-5.1-4.6-3.8 0-5.7 2.71-5.7 5 0 1.41.5 2.6 1.6 3.1.2.11.3 0 .4-.19.1-.1.2-.5.2-.6.07-.15.04-.19-.02-.27-.03-.04-.06-.08-.08-.13-.3-.41-.5-.91-.5-1.6 0-2 1.5-3.81 3.9-3.81 2.1 0 3.29 1.31 3.29 3.1 0 2.4-1 4.31-2.5 4.31-.89 0-1.49-.7-1.29-1.5.08-.42.21-.86.34-1.27.19-.58.36-1.13.36-1.54 0-.69-.4-1.19-1.1-1.19-.8 0-1.5.9-1.5 2.09 0 .81.3 1.31.3 1.31s-.8 3.69-1 4.4c-.1.6-.1 1.19-.1 1.79C10 22.1 8 19.29 8 16Z" fill="#C0B7E8" fill-rule="evenodd"/></svg><svg fill="none" viewBox="0 0 30 30" id="promoArrowLeft" xmlns="http://www.w3.org/2000/svg"><path d="M17.5 21.25 11.25 15l6.25-6.25M15 26.25c6.21 0 11.25-5.04 11.25-11.25 0-6.22-5.04-11.25-11.25-11.25C8.78 3.75 3.75 8.78 3.75 15c0 6.21 5.03 11.25 11.25 11.25Z" stroke="#FFF" stroke-width="1.5" stroke-linejoin="round" stroke-linecap="round"/></svg><svg fill="none" viewBox="0 0 28.012 15.597" id="shape" xmlns="http://www.w3.org/2000/svg"><path d="M1.5 1.5 14 14 26.5 1.5" stroke="#433D60" stroke-width="3" stroke-linejoin="round" stroke-linecap="round"/></svg><svg fill="none" viewBox="0 0 32 32" id="twitter" xmlns="http://www.w3.org/2000/svg"><path d="M0 16C0 7.16 7.16 0 16 0c8.83 0 16 7.16 16 16 0 8.83-7.17 16-16 16-8.84 0-16-7.17-16-16Zm22.1-4.5c.7-.11 1.3-.21 1.9-.5-.4.7-1 1.29-1.7 1.7.2 4.69-3.2 9.8-9.3 9.8-1.8 0-3.5-.61-5-1.5 1.7.2 3.5-.3 4.7-1.21-1.5 0-2.7-1-3.1-2.29.5.1 1 0 1.5-.11C9.6 17 8.5 15.6 8.5 14.1c.5.19 1 .4 1.5.4-1.4-1-1.9-2.9-1-4.4 1.7 2 4.1 3.29 6.8 3.4-.5-2 1.1-4 3.2-4 .9 0 1.8.39 2.4 1 .8-.21 1.5-.4 2.1-.8-.2.8-.7 1.4-1.4 1.8Z" fill="#C0B7E8" fill-rule="evenodd"/></svg><svg fill="none" viewBox="0 0 32 32" id="youtube" xmlns="http://www.w3.org/2000/svg"><path d="M16 0C7.16 0 0 7.16 0 16c0 8.83 7.16 16 16 16 8.83 0 16-7.17 16-16 0-8.84-7.17-16-16-16Zm7.6 12.1c-.2-.71-.7-1.21-1.4-1.4-1.2-.31-6.3-.31-6.3-.31s-5 0-6.3.31c-.71.19-1.21.69-1.4 1.4C8 13.39 8 16 8 16s0 2.6.29 3.89c.21.71.71 1.21 1.41 1.4 1.2.31 6.3.31 6.3.31s5 0 6.3-.31c.7-.19 1.2-.69 1.4-1.4C24 18.6 24 16 24 16s0-2.61-.4-3.9Zm-9.2 1.5 4.2 2.4-4.2 2.39V13.6Z" fill="#C0B7E8" fill-rule="evenodd"/></svg></svg>